<?xml version="1.0" standalone="no"?>
<!DOCTYPE svg PUBLIC "-//W3C//DTD SVG 20010904//EN"
 "http://www.w3.org/TR/2001/REC-SVG-20010904/DTD/svg10.dtd">
<svg version="1.0" xmlns="http://www.w3.org/2000/svg"
 width="1228.000000pt" height="227.000000pt" viewBox="0 0 1228.000000 227.000000"
 preserveAspectRatio="xMidYMid meet">

<g transform="translate(0.000000,227.000000) scale(0.100000,-0.100000)"
fill="#000000" stroke="none">
<path d="M1320 2200 c-289 -70 -457 -100 -551 -100 -62 0 -70 2 -85 25 -24 37
-51 41 -82 12 -38 -36 -73 -47 -152 -47 -51 0 -73 -5 -91 -18 l-22 -19 40 -6
c47 -8 68 -29 77 -77 4 -22 19 -48 40 -68 81 -76 77 -175 -29 -662 -122 -569
-163 -726 -194 -754 -13 -12 -48 -21 -103 -27 -106 -12 -158 -26 -158 -43 0
-22 21 -25 101 -15 41 4 91 8 113 9 35 0 38 -2 32 -23 -4 -12 -9 -36 -13 -54
-5 -30 -4 -32 38 -44 50 -13 352 -8 658 12 170 11 186 11 216 -5 31 -17 34
-17 59 -1 22 15 49 17 166 16 77 -1 140 0 140 3 0 18 -74 38 -159 45 -110 8
-121 13 -121 45 0 48 12 50 293 43 256 -6 315 -2 278 22 -31 20 -144 31 -308
31 -94 0 -185 3 -202 6 -51 10 -54 28 -31 181 11 76 36 287 55 468 46 434 43
415 76 446 l28 26 -37 37 c-44 42 -53 43 -97 16 -28 -17 -56 -22 -167 -26 -73
-3 -155 -10 -182 -15 -56 -11 -166 -57 -166 -70 0 -5 13 -15 30 -24 52 -27
372 -16 403 15 11 10 -9 22 -53 31 -31 6 -28 7 22 8 65 1 88 -14 88 -60 0 -17
-13 -132 -30 -256 -16 -124 -30 -253 -30 -286 -1 -102 -46 -467 -59 -480 -9
-9 -84 -13 -270 -15 -310 -4 -295 -9 -312 113 -16 115 -6 269 35 520 48 298
63 419 77 625 6 96 15 183 20 192 11 21 99 54 209 79 47 10 180 26 295 34 116
9 235 19 265 24 l55 7 -40 12 c-22 7 -60 12 -85 13 -111 3 -100 14 60 58 202
55 200 54 203 66 6 26 -110 11 -343 -45z m-854 -1557 c5 -54 9 -105 9 -113 0
-22 -47 -44 -79 -36 -26 6 -28 10 -23 43 7 41 69 203 78 203 4 0 10 -44 15
-97z m674 -208 c22 -26 4 -64 -33 -69 -48 -7 -587 -31 -702 -31 l-100 0 0 29
c0 23 8 34 34 50 41 24 166 32 547 34 203 2 244 0 254 -13z"/>
<path d="M2920 2249 c-19 -4 -127 -15 -240 -24 -307 -24 -452 -52 -506 -98
-25 -22 -25 -25 -15 -79 9 -50 2 -153 -14 -208 -2 -8 -20 -145 -40 -305 -40
-326 -80 -592 -125 -828 -37 -198 -41 -351 -11 -388 l19 -24 6 25 c3 14 19
104 36 200 16 96 38 213 49 260 l19 85 0 -150 c-1 -114 3 -169 17 -228 21 -86
16 -107 -26 -117 -17 -4 -25 -14 -27 -33 -3 -24 2 -30 35 -43 31 -14 54 -15
128 -8 97 9 217 10 503 3 155 -3 184 -2 192 11 16 25 11 37 -21 51 -37 15 -70
16 -159 7 l-65 -8 50 25 c28 13 94 44 147 69 99 45 194 104 184 113 -3 3 -28
5 -55 5 -51 -2 -120 -25 -317 -106 -139 -58 -244 -80 -341 -71 -94 8 -132 22
-144 52 -20 54 -4 453 22 521 17 44 67 54 308 64 296 11 426 40 426 92 0 17
-15 18 -265 17 -146 -1 -300 -6 -343 -12 -122 -18 -118 -31 -79 268 48 367 52
389 73 411 10 11 82 41 161 67 79 26 235 85 348 130 113 46 223 88 246 94 22
6 49 20 60 32 28 31 3 41 -91 36 -92 -5 -236 -49 -501 -152 -91 -36 -167 -65
-169 -65 -2 0 -11 7 -19 16 -35 34 -9 122 41 143 52 21 198 41 304 41 156 0
319 45 319 89 0 31 -45 39 -120 20z"/>
<path d="M4739 2223 c-20 -21 -65 -78 -99 -126 -34 -49 -64 -86 -67 -84 -2 3
8 31 22 62 54 113 8 86 -174 -101 -228 -235 -346 -387 -448 -580 -25 -46 -51
-84 -58 -84 -16 0 -71 85 -123 189 -20 41 -95 221 -167 399 -71 179 -137 330
-146 335 -9 5 -32 7 -52 3 -60 -11 -68 -33 -79 -224 -11 -192 -3 -1557 10
-1641 7 -41 15 -60 35 -75 20 -16 29 -34 33 -70 4 -26 14 -55 23 -64 15 -14
16 18 22 399 3 228 12 602 19 831 12 353 16 416 28 406 19 -17 44 -68 101
-209 70 -177 116 -274 167 -355 49 -80 56 -123 27 -177 -35 -68 -62 -160 -52
-179 5 -10 14 -18 19 -18 5 0 30 41 56 90 25 49 49 90 53 90 3 0 14 -14 24
-32 l18 -31 28 27 c32 31 42 29 106 -19 42 -31 75 -40 75 -22 0 9 -18 50 -41
92 -38 72 -40 79 -28 108 14 33 260 368 328 447 28 32 42 42 50 35 8 -8 5
-109 -10 -355 -27 -461 -29 -668 -5 -735 10 -27 21 -89 25 -138 3 -48 11 -88
16 -88 34 -2 61 331 79 966 17 563 17 562 112 712 18 28 37 67 42 87 6 19 24
55 42 79 18 26 30 54 28 66 -3 21 -6 19 -39 -16z m-323 -452 c-25 -36 -100
-136 -166 -221 -66 -85 -148 -194 -181 -242 -57 -84 -79 -104 -79 -74 0 7 24
60 53 117 91 178 241 385 355 490 l57 52 3 -28 c3 -20 -9 -46 -42 -94z"/>
<path d="M7246 2238 c-8 -13 -17 -47 -21 -77 -11 -80 -27 -91 -132 -91 -53 0
-134 10 -203 24 -130 27 -163 22 -168 -25 -7 -56 98 -99 302 -124 70 -8 137
-20 147 -26 23 -12 24 -35 4 -189 -32 -259 -59 -720 -72 -1205 -5 -235 -4
-261 10 -274 41 -33 66 53 93 304 30 293 74 559 175 1048 32 158 63 296 69
306 22 41 68 69 137 80 68 12 485 125 513 140 24 13 25 68 1 81 -28 14 -192
-11 -336 -53 -94 -27 -126 -32 -225 -33 -65 0 -131 -6 -152 -13 -21 -7 -42
-10 -47 -7 -5 3 -12 34 -16 68 -4 35 -12 69 -17 76 -16 19 -46 14 -62 -10z
m100 -331 c6 -17 -42 -258 -60 -300 -14 -32 -14 -31 -15 36 -1 84 26 259 42
269 17 11 27 10 33 -5z"/>
<path d="M10835 2214 c-27 -10 -59 -12 -100 -8 -82 8 -283 -37 -516 -116 -98
-33 -192 -60 -208 -60 -41 0 -78 -16 -90 -38 -6 -11 -12 -71 -14 -133 -3 -68
-13 -149 -25 -199 -22 -93 -74 -572 -97 -904 -22 -315 -20 -309 -93 -348 -25
-13 -32 -24 -32 -48 0 -34 26 -50 85 -50 60 0 65 -15 58 -157 -5 -93 -3 -124
5 -119 16 9 29 66 38 154 4 40 10 75 15 78 5 3 22 -5 37 -16 27 -20 42 -22
163 -21 148 1 183 6 356 51 65 17 167 35 227 40 60 5 111 11 114 14 9 10 -23
39 -63 57 -70 32 -212 18 -434 -43 -65 -18 -82 -19 -150 -9 -42 7 -96 13 -121
14 -60 3 -82 39 -82 135 0 102 195 1191 228 1270 8 20 22 45 32 56 36 41 539
272 732 336 53 18 106 42 120 56 l25 24 -85 0 c-49 -1 -102 -7 -125 -16z
m-300 -104 c16 -26 -9 -49 -88 -81 -45 -18 -112 -47 -149 -66 -78 -38 -89 -40
-112 -14 -37 40 8 71 194 132 122 41 145 45 155 29z m-467 -167 c3 -22 -43
-66 -62 -60 -6 2 -11 17 -11 33 0 20 7 32 25 41 31 16 44 12 48 -14z m-44
-219 c7 -19 11 2 -54 -354 -27 -151 -61 -347 -76 -435 -54 -334 -42 -154 32
463 19 162 39 305 44 318 11 28 45 32 54 8z"/>
<path d="M4996 2202 c-3 -4 -7 -134 -10 -288 -3 -153 -8 -360 -12 -458 -6
-159 -10 -182 -27 -199 -14 -14 -28 -18 -54 -14 -47 8 -63 0 -63 -33 0 -34 8
-40 75 -55 l50 -12 -5 -264 c-7 -377 -6 -600 3 -632 11 -40 45 -37 51 5 3 18
9 194 13 390 6 264 11 360 21 370 31 31 37 -7 48 -336 8 -200 16 -332 23 -345
13 -24 31 -27 49 -9 16 16 17 338 1 338 -17 0 -8 328 10 339 7 5 61 11 119 14
167 9 302 52 431 138 41 27 78 46 82 42 4 -5 -1 -64 -11 -133 -32 -218 -52
-485 -48 -629 3 -122 6 -141 28 -181 17 -30 32 -45 45 -45 24 0 25 26 5 120
-23 111 1 415 65 810 18 116 43 278 55 360 27 191 61 356 106 517 38 136 39
172 2 184 -17 5 -27 0 -42 -20 -68 -87 -59 -81 -128 -79 -375 14 -551 35 -692
83 -85 29 -179 40 -190 22z m117 -114 c8 -12 6 -132 -7 -415 -10 -219 -20
-401 -23 -405 -2 -5 -14 -8 -25 -8 -21 0 -21 3 -15 148 4 81 10 266 13 412 3
146 7 271 10 278 5 18 34 12 47 -10z m189 -38 c50 -12 190 -28 353 -41 149
-12 274 -25 279 -30 6 -5 0 -52 -17 -121 -14 -62 -37 -189 -51 -283 -41 -271
-45 -288 -63 -306 -26 -25 -256 -115 -364 -142 -105 -27 -218 -42 -249 -32
-23 7 -28 56 -7 73 14 12 334 77 466 95 71 9 97 17 105 30 9 15 6 22 -14 39
-22 18 -34 20 -100 14 -41 -3 -149 -19 -238 -36 -185 -34 -205 -35 -221 -17
-14 18 9 743 25 769 7 10 0 11 96 -12z"/>
<path d="M6323 2198 c-6 -7 -13 -24 -17 -38 -12 -48 -45 -478 -61 -795 -19
-392 -39 -637 -66 -815 -29 -187 -33 -235 -21 -256 9 -16 16 -8 46 58 47 100
63 175 71 332 3 71 19 207 36 302 16 96 50 315 74 486 25 172 59 393 76 492
29 163 30 179 15 194 -10 11 -19 13 -26 6 -14 -14 -56 -217 -96 -459 l-34
-210 5 140 c3 77 12 226 21 331 16 182 15 244 -5 244 -5 0 -13 -6 -18 -12z"/>
<path d="M11429 2183 c-10 -11 -13 -37 -11 -81 1 -36 -4 -147 -12 -246 -8
-100 -18 -238 -21 -307 -4 -70 -12 -137 -19 -150 -14 -28 -41 -36 -63 -17 -14
11 -15 34 -7 208 5 107 9 256 9 331 0 146 -7 169 -50 169 -48 0 -50 -11 -56
-364 -4 -189 -11 -342 -17 -357 -16 -39 -39 -58 -87 -70 -55 -14 -67 -28 -63
-71 3 -33 3 -33 63 -36 32 -2 65 -8 72 -14 10 -8 13 -104 13 -447 0 -336 3
-450 14 -495 13 -54 30 -81 46 -71 4 2 10 159 14 347 13 596 18 683 40 707 23
25 51 27 60 5 8 -21 -11 -721 -24 -909 -12 -162 -3 -300 19 -300 31 0 41 106
71 779 17 376 23 444 38 469 14 26 47 42 222 113 113 46 215 83 227 83 32 1
36 -24 24 -172 -30 -366 -41 -531 -41 -617 0 -52 -5 -155 -11 -228 -9 -104 -9
-139 0 -160 11 -23 14 -24 22 -10 30 54 71 394 114 948 9 118 22 223 31 247
18 51 70 98 121 112 45 13 103 47 103 61 0 19 -50 22 -117 6 -48 -11 -71 -12
-80 -4 -17 14 -16 68 3 217 21 153 14 196 -31 196 -22 0 -33 -7 -42 -25 -6
-14 -20 -114 -31 -223 -21 -225 -24 -233 -116 -263 -28 -9 -105 -38 -172 -65
-148 -58 -185 -67 -204 -44 -14 17 -10 161 10 385 14 154 13 353 -2 368 -17
17 -43 15 -59 -5z"/>
<path d="M8331 2177 c-7 -7 -11 -81 -11 -226 0 -251 -26 -1025 -40 -1218 -15
-200 -21 -208 -147 -209 -86 0 -103 -7 -103 -44 0 -40 44 -60 133 -60 79 0
101 -12 61 -33 -16 -8 -40 -18 -54 -22 -43 -13 -80 -45 -80 -69 0 -40 20 -47
83 -31 62 16 83 13 92 -16 8 -25 31 -24 45 1 17 32 46 41 174 56 262 30 673
161 632 201 -3 4 -32 9 -64 11 -42 3 -91 -4 -179 -27 -67 -16 -173 -37 -235
-46 -62 -9 -141 -21 -174 -27 -34 -6 -70 -8 -80 -3 -24 10 22 25 346 111 135
36 249 69 253 74 12 11 -40 49 -77 55 -17 3 -83 -6 -146 -19 -347 -75 -378
-80 -396 -65 -15 12 -16 31 -11 189 4 96 11 263 17 370 12 234 18 984 8 1021
-9 31 -30 43 -47 26z"/>
<path d="M9407 2113 c-24 -40 -56 -381 -82 -898 -19 -368 -39 -586 -71 -773
-32 -186 -20 -243 30 -144 47 92 66 180 76 337 5 83 21 213 35 289 14 76 48
292 76 480 27 188 61 400 75 473 13 73 24 146 24 162 0 35 -17 49 -35 30 -18
-19 -58 -207 -95 -444 -17 -110 -33 -202 -36 -204 -5 -5 0 93 18 329 17 211
17 362 1 367 -6 2 -13 0 -16 -4z"/>
</g>
</svg>
